<svg width="28" height="29" viewBox="0 0 28 29" fill="none" xmlns="http://www.w3.org/2000/svg">
<g clip-path="url(#clip0_716_1315)">
<path d="M28 0.370605H0V28.3706H28V0.370605Z" fill="white"/>
<path d="M13.9998 24.8005C13.7781 24.8005 13.5448 24.7655 13.3231 24.6839C13.0898 24.6022 12.8915 24.4855 12.7048 24.3222C11.6548 23.3539 10.6748 22.3622 9.76479 21.3472C8.85479 20.3205 8.06146 19.3055 7.38479 18.2789C6.70812 17.2522 6.18313 16.2489 5.78646 15.2455C5.38979 14.2422 5.20312 13.2739 5.20312 12.3405C5.20312 9.64555 6.07812 7.46388 7.81646 5.80721C9.55479 4.13888 11.6198 3.31055 14.0115 3.31055C16.4031 3.31055 18.4681 4.13888 20.2065 5.80721C21.9448 7.47555 22.8198 9.65721 22.8198 12.3405C22.8198 13.2739 22.6215 14.2422 22.2365 15.2455C21.8398 16.2489 21.3148 17.2639 20.6381 18.2789C19.9731 19.3055 19.1798 20.3205 18.2698 21.3472C17.3598 22.3622 16.3798 23.3539 15.3298 24.3222C15.1431 24.4855 14.9448 24.6139 14.7115 24.6955C14.4781 24.7772 14.2448 24.8239 14.0231 24.8239L13.9998 24.8005ZM13.9998 14.2189C14.5831 14.2189 15.0731 14.0089 15.4931 13.6005C15.9015 13.1922 16.1115 12.6905 16.1115 12.1072C16.1115 11.5239 15.9015 11.0339 15.4931 10.6139C15.0848 10.2055 14.5831 9.99555 13.9998 9.99555C13.4165 9.99555 12.9265 10.2055 12.5065 10.6139C12.0981 11.0222 11.8881 11.5239 11.8881 12.1072C11.8881 12.6905 12.0981 13.1805 12.5065 13.6005C12.9148 14.0089 13.4165 14.2189 13.9998 14.2189Z" fill="#4E4FEB"/>
</g>
<defs>
<clipPath id="clip0_716_1315">
<rect width="28" height="28" fill="white" transform="translate(0 0.370605)"/>
</clipPath>
</defs>
</svg>
