<svg width="28" height="29" viewBox="0 0 28 29" fill="none" xmlns="http://www.w3.org/2000/svg">
<g clip-path="url(#clip0_716_1324)">
<path d="M28 0.370605H0V28.3706H28V0.370605Z" fill="white"/>
<path d="M22.6826 24.2875C20.4893 24.2875 18.2726 23.7742 16.0559 22.7592C13.8393 21.7325 11.7976 20.2975 9.93094 18.4308C8.07594 16.5642 6.64094 14.5342 5.61427 12.3175C4.5876 10.1008 4.08594 7.89582 4.08594 5.70249C4.08594 5.35249 4.2026 5.06082 4.43594 4.81582C4.66927 4.58249 4.96094 4.46582 5.31094 4.46582H9.11427C9.40594 4.46582 9.67427 4.55915 9.89594 4.75749C10.1176 4.94415 10.2693 5.18915 10.3276 5.46915L10.9926 8.89915C11.0393 9.21415 11.0276 9.49415 10.9576 9.71582C10.8876 9.94915 10.7709 10.1358 10.6076 10.2875L7.9126 12.9125C8.34427 13.7058 8.84594 14.4525 9.39427 15.1642C9.95427 15.8758 10.5493 16.5525 11.2026 17.1942C11.8443 17.8358 12.5209 18.4308 13.2443 18.9792C13.9676 19.5275 14.7493 20.0408 15.5776 20.5075L18.1909 17.8708C18.3776 17.6842 18.5993 17.5442 18.8559 17.4742C19.1126 17.3925 19.3809 17.3808 19.6609 17.4158L22.9043 18.0808C23.1959 18.1625 23.4409 18.3142 23.6276 18.5358C23.8143 18.7575 23.9076 19.0142 23.9076 19.2942V23.0742C23.9076 23.4242 23.7909 23.7158 23.5576 23.9492C23.3243 24.1825 23.0326 24.2992 22.6709 24.2992L22.6826 24.2875Z" fill="#4E4FEB"/>
</g>
<defs>
<clipPath id="clip0_716_1324">
<rect width="28" height="28" fill="white" transform="translate(0 0.370605)"/>
</clipPath>
</defs>
</svg>
