<svg
    xmlns="http://www.w3.org/2000/svg"
    width="210"
    height="210"
    viewBox="0 0 210 210"
    fill="none"
>
    <path
    d="M78.0575 206.485L86.1821 188.396L88.7301 188.742L91.4442 203.898L97.8929 189.989L100.441 190.336L103.898 210L101.067 209.615L98.5521 194.538L92.2906 208.421L89.408 208.029L87.0215 192.969L80.8887 206.87L78.0575 206.485Z"
    fill="#4E4FEB"
    />
    <path
    d="M53.9932 196.288L55.0073 194.164L64.6518 198.72L67.1035 193.585L58.6792 189.606L59.7045 187.459L68.1287 191.438L70.8256 185.79L61.1811 181.234L62.1952 179.11L74.3036 184.829L66.1016 202.008L53.9932 196.288Z"
    fill="#4E4FEB"
    />
    <path
    d="M42.2296 162.808C46.0891 166.788 45.8964 172.358 41.7644 176.322C37.6138 180.305 32.0105 180.296 28.1697 176.298C26.3481 174.42 25.5102 171.993 25.5912 169.546L28.0884 169.627C27.9277 171.397 28.5732 173.29 29.9078 174.666C32.6485 177.53 36.6743 177.401 39.8527 174.351C43.0311 171.302 43.2869 167.323 40.5275 164.477C39.1027 163.008 37.2941 162.446 35.6392 162.526L35.5379 160.002C37.9996 160.01 40.3365 160.819 42.2296 162.808Z"
    fill="#4E4FEB"
    />
    <path
    d="M21.9064 150.473C20.882 148.645 18.8249 148.159 16.8054 149.278C14.8086 150.385 14.1655 152.369 15.1899 154.197L17.7447 158.756L24.4612 155.032L21.9064 150.473ZM33.7083 153.012L17.0078 162.271L12.9733 155.071C11.2659 152.024 12.3007 148.67 15.4548 146.921C17.7012 145.676 20.4036 145.775 22.6924 147.789L26.3348 139.854L27.9917 142.811L24.5404 150.344L26.5261 153.888L32.3803 150.642L33.7083 153.012Z"
    fill="#4E4FEB"
    />
    <path
    d="M1.89098 125.558L4.17443 124.95L6.93705 135.207L12.4575 133.737L10.0444 124.777L12.3529 124.161L14.766 133.122L20.8385 131.504L18.0759 121.246L20.3594 120.637L23.8278 133.516L5.35938 138.437L1.89098 125.558Z"
    fill="#4E4FEB"
    />
    <path
    d="M0.0134051 103.261L19.1422 95.6621L19.1386 98.5819L13.9406 100.668L13.9301 109.195L19.1231 111.32L19.1195 114.24L0.00951633 106.439L0.0134051 103.261ZM11.5674 108.236L11.5755 101.596L3.36255 104.867L11.5674 108.236Z"
    fill="#4E4FEB"
    />
    <path
    d="M5.4721 70.8822L7.75406 71.4961L6.27542 76.9335L22.4497 81.285L21.7375 83.9039L5.56323 79.5524L4.07102 85.0397L1.78906 84.4258L5.4721 70.8822Z"
    fill="#4E4FEB"
    />
    <path
    d="M15.9122 49.2332L17.9881 50.358L12.8807 59.6837L17.8995 62.4029L22.3607 54.2571L24.4595 55.3942L19.9983 63.5401L25.5189 66.5312L30.6263 57.2055L32.7022 58.3303L26.29 70.0385L9.5 60.9414L15.9122 49.2332Z"
    fill="#4E4FEB"
    />
    <path
    d="M50.6411 25.826L51.7016 27.0995C55.1317 31.2186 54.2959 35.9668 50.2478 39.3689C45.9465 42.9125 40.3371 42.3334 36.6749 37.9358C33.0128 33.5381 33.5019 27.9684 37.8032 24.4248C42.4246 20.6174 46.9781 22.8045 46.9781 22.8045L45.9398 25.2033C45.9398 25.2033 42.5887 23.5689 39.3277 26.2555C36.2067 28.8267 35.9751 32.8422 38.7756 36.2052C41.5926 39.588 45.6023 40.1094 48.7233 37.5382C51.3744 35.2535 52.4214 32.1766 50.0221 29.2548L45.3807 33.0786L43.939 31.3474L50.6411 25.826Z"
    fill="#4E4FEB"
    />
    <path
    d="M67.1732 18.3084C69.1008 17.4691 69.7846 15.479 68.8575 13.3724C67.9408 11.2894 66.0173 10.4628 64.0897 11.3021L59.2826 13.3951L62.3662 20.4014L67.1732 18.3084ZM63.5031 29.7501L55.8359 12.3291L63.4273 9.02378C66.6399 7.62497 69.8978 8.97064 71.3458 12.2608C72.3771 14.6041 72.0192 17.2702 69.784 19.3435L77.3769 23.7094L74.2595 25.0667L67.0503 20.9286L63.3141 22.5553L66.0018 28.6622L63.5031 29.7501Z"
    fill="#4E4FEB"
    />
    <path
    d="M93.0903 18.1639C97.1325 17.624 99.4417 14.3435 98.8539 9.99005C98.2662 5.6366 95.1686 3.07833 91.1264 3.61826C87.11 4.15476 84.8008 7.43523 85.3886 11.7887C85.9763 16.1421 89.0739 18.7004 93.0903 18.1639ZM82.6594 12.1532C81.8953 6.49374 85.2728 2.00168 90.8083 1.26228C96.3438 0.522877 100.793 3.96946 101.557 9.62895C102.321 15.2884 98.9439 19.7805 93.4084 20.5199C87.8729 21.2593 83.4236 17.8127 82.6594 12.1532Z"
    fill="#4E4FEB"
    />
    <path
    d="M138.849 5.33762L129.465 22.8134L126.948 22.2894L125.312 6.98108L117.896 20.4051L115.379 19.8811L113.32 0.0234375L116.117 0.605668L117.56 15.8211L124.788 2.41058L127.636 3.0034L128.951 18.1923L136.052 4.75539L138.849 5.33762Z"
    fill="#4E4FEB"
    />
    <path
    d="M162.543 17.4186L161.381 19.4664L156.449 16.6981L148.214 31.2125L145.839 29.8791L154.073 15.3648L149.096 12.5712L150.258 10.5234L162.543 17.4186Z"
    fill="#4E4FEB"
    />
    <path
    d="M182.639 34.4344L169.46 48.2119L167.484 46.3418L173.429 40.127L166.39 33.4659L160.446 39.6808L158.469 37.8107L171.648 24.0332L173.625 25.9033L168.038 31.7437L175.077 38.4048L180.663 32.5644L182.639 34.4344Z"
    fill="#4E4FEB"
    />
    <path
    d="M207.081 78.1871L187.249 80.0313L186.301 77.6534L198.241 67.8586L182.893 69.1023L181.945 66.7244L197.469 54.0713L198.522 56.7135L186.553 66.297L201.786 64.9042L202.859 67.5944L190.842 77.0579L206.028 75.545L207.081 78.1871Z"
    fill="#4E4FEB"
    />
    <path
    d="M208.742 90.1885L209.087 92.8798L190.12 95.2813L189.776 92.59L208.742 90.1885Z"
    fill="#4E4FEB"
    />
    <path
    d="M209.276 117.162L206.915 117.041L207.206 111.416L190.472 110.56L190.612 107.851L207.346 108.707L207.639 103.03L210 103.15L209.276 117.162Z"
    fill="#4E4FEB"
    />
    <path
    d="M202.927 142.652L184.65 137.065L185.452 134.472L193.696 136.992L196.55 127.755L188.306 125.235L189.107 122.641L207.383 128.228L206.582 130.821L198.834 128.453L195.98 137.69L203.728 140.058L202.927 142.652Z"
    fill="#4E4FEB"
    />
    <path
    d="M174.852 158.222C172.289 161.411 172.806 165.361 176.154 168.023C179.502 170.685 183.49 170.316 186.053 167.127L188.243 164.403L177.042 155.497L174.852 158.222ZM176.878 151.894L191.812 163.768L187.887 168.652C184.4 172.991 178.87 173.623 174.467 170.122C170.064 166.621 169.465 161.117 172.953 156.778L176.878 151.894Z"
    fill="#4E4FEB"
    />
    <path
    d="M164.409 190.756L147.093 179.661L149.486 177.971L154.21 180.973L161.2 176.037L159.93 170.597L162.323 168.907L167.015 188.916L164.409 190.756ZM161.785 178.508L156.341 182.352L163.783 187.11L161.785 178.508Z"
    fill="#4E4FEB"
    />
    <path
    d="M134.708 205.101L133.888 202.896L139.199 200.941L133.385 185.311L135.943 184.37L141.757 200L147.117 198.027L147.938 200.232L134.708 205.101Z"
    fill="#4E4FEB"
    />
    <path
    d="M113.008 208.863L103.631 190.621L106.554 190.354L109.124 195.309L117.661 194.531L119.308 189.191L122.231 188.925L116.19 208.572L113.008 208.863ZM116.919 196.96L110.271 197.566L114.306 205.397L116.919 196.96Z"
    fill="#4E4FEB"
    />
</svg>