<svg width="100" height="30" viewBox="0 0 100 30" fill="none" xmlns="http://www.w3.org/2000/svg">
<g clip-path="url(#clip0_683_2292)">
<path d="M2.26159 23.5661L10.5687 13.6935L3.48274 3.7128H8.12913L15.0262 13.3399L16.1761 11.965L9.05183 2.01855H0.153328L8.37828 13.6064L0 23.5661H2.26159Z" fill="#4E4FEB"/>
<path d="M29.0355 7.02246H26.7739L18.4668 16.895L25.5527 26.8757H20.9064L14.0093 17.2486L12.8594 18.6235L19.9837 28.5673H28.8822L20.6572 16.9794L29.0355 7.02246Z" fill="#4E4FEB"/>
<path d="M25.7589 0.588379L1.01562 30.0001H3.27721L28.0205 0.588379H25.7589Z" fill="#4E4FEB"/>
<path d="M35.4755 20.1566V28.5672H33.6328V6.99854H41.8413C46.4193 6.99854 48.8123 9.5531 48.8123 13.5776C48.8123 17.6021 46.422 20.1566 41.8413 20.1566H35.4755ZM41.6661 18.5759C45.179 18.5759 46.9641 16.689 46.9641 13.5802C46.9641 10.4715 45.179 8.61097 41.6661 8.61097H35.4728V18.5759H41.6661Z" fill="#4E4FEB"/>
<path d="M50.8984 6.99854H52.7411V26.9838H63.715V28.5672H50.8984V6.99854Z" fill="#4E4FEB"/>
<path d="M75.9408 6.99854L84.0617 28.5672H82.104L80.1162 23.1809H69.72L67.7624 28.5672H65.8047L73.8982 6.99854H75.9435H75.9408ZM70.2977 21.6292H79.5412L74.9332 9.02793L70.295 21.6292H70.2977Z" fill="#4E4FEB"/>
<path d="M84.6797 6.99854H100.002V8.60833H93.2633V28.5672H91.4207V8.61097H84.6824V7.00117L84.6797 6.99854Z" fill="#4E4FEB"/>
</g>
<defs>
<clipPath id="clip0_683_2292">
<rect width="100" height="29.4118" fill="white" transform="translate(0 0.588379)"/>
</clipPath>
</defs>
</svg>
